<svg width="116" height="116" viewBox="0 0 116 116" fill="none" xmlns="http://www.w3.org/2000/svg">
<rect x="0.452637" y="0.605835" width="114.867" height="114.868" fill="#F9FAFB"/>
<path fill-rule="evenodd" clip-rule="evenodd" d="M78.4386 36.6734H37.3334C35.4004 36.6734 33.8334 38.2404 33.8334 40.1734V75.9067C33.8334 77.8397 35.4004 79.4067 37.3334 79.4067H78.4385C80.3715 79.4067 81.9385 77.8397 81.9385 75.9067V40.1734C81.9385 38.2404 80.3715 36.6734 78.4386 36.6734ZM37.3334 35.1734C34.572 35.1734 32.3334 37.412 32.3334 40.1734V75.9067C32.3334 78.6681 34.5719 80.9067 37.3334 80.9067H78.4385C81.2 80.9067 83.4385 78.6681 83.4385 75.9067V40.1734C83.4385 37.412 81.2 35.1734 78.4386 35.1734H37.3334Z" fill="#625A5A"/>
<path fill-rule="evenodd" clip-rule="evenodd" d="M45.3826 52.1438C47.9687 52.1438 50.0651 50.0473 50.0651 47.4613C50.0651 44.8752 47.9687 42.7787 45.3826 42.7787C42.7965 42.7787 40.7001 44.8752 40.7001 47.4613C40.7001 50.0473 42.7965 52.1438 45.3826 52.1438ZM45.3826 53.6438C48.7971 53.6438 51.5651 50.8758 51.5651 47.4613C51.5651 44.0468 48.7971 41.2787 45.3826 41.2787C41.9681 41.2787 39.2001 44.0468 39.2001 47.4613C39.2001 50.8758 41.9681 53.6438 45.3826 53.6438Z" fill="#625A5A"/>
<path fill-rule="evenodd" clip-rule="evenodd" d="M66.6632 51.7457C68.8699 49.6072 72.3679 49.5817 74.6056 51.6877L76.4258 53.4009C77.1787 54.1096 77.6057 55.0977 77.6057 56.1316V72.4407C77.6057 73.9595 76.3744 75.1907 74.8557 75.1907H40.6731C39.1543 75.1907 37.9231 73.9595 37.9231 72.4407V67.8812C37.9231 66.8464 38.3507 65.8576 39.1047 65.1488L46.3791 58.3109C48.234 56.5673 51.1337 56.596 52.9537 58.376L55.5017 60.868C55.9859 61.3416 56.7592 61.3434 57.2456 60.872L66.6632 51.7457ZM73.5775 52.78C71.9236 51.2234 69.3381 51.2423 67.7071 52.8229L58.2894 61.9492C57.2194 62.9862 55.5181 62.9823 54.4529 61.9404L51.9049 59.4484C50.6596 58.2305 48.6756 58.2109 47.4065 59.4038L40.1321 66.2418C39.6797 66.667 39.4231 67.2603 39.4231 67.8812V72.4407C39.4231 73.131 39.9827 73.6907 40.6731 73.6907H74.8557C75.546 73.6907 76.1057 73.131 76.1057 72.4407V56.1316C76.1057 55.5112 75.8495 54.9184 75.3977 54.4932L73.5775 52.78Z" fill="#625A5A"/>
</svg>
